<?xml version="1.0" encoding="UTF-8" standalone="no"?>
<svg
   xmlns:dc="http://purl.org/dc/elements/1.1/"
   xmlns:cc="http://creativecommons.org/ns#"
   xmlns:rdf="http://www.w3.org/1999/02/22-rdf-syntax-ns#"
   xmlns:svg="http://www.w3.org/2000/svg"
   xmlns="http://www.w3.org/2000/svg"
   xmlns:sodipodi="http://sodipodi.sourceforge.net/DTD/sodipodi-0.dtd"
   xmlns:inkscape="http://www.inkscape.org/namespaces/inkscape"
   version="1.1"
   width="914.3000000000001mm"
   height="512.7mm"
   viewBox=" 0 0 3239.648333 1816.6550370000002"
   id="svg3422"
   inkscape:version="0.92.1 r15371"
   sodipodi:docname="caseplans-felix.svg">
  <metadata
     id="metadata3468">
    <rdf:RDF>
      <cc:Work
         rdf:about="">
        <dc:format>image/svg+xml</dc:format>
        <dc:type
           rdf:resource="http://purl.org/dc/dcmitype/StillImage" />
        <dc:title></dc:title>
      </cc:Work>
    </rdf:RDF>
  </metadata>
  <defs
     id="defs3466">
    <clipPath
       id="clipPath3715"
       clipPathUnits="userSpaceOnUse">
      <path
         inkscape:connector-curvature="0"
         id="path3713"
         d="M 0,88 H 595 V 754 H 0 Z" />
    </clipPath>
    <clipPath
       id="clipPath3721"
       clipPathUnits="userSpaceOnUse">
      <path
         inkscape:connector-curvature="0"
         id="path3719"
         d="M 86,139 H 518 V 675 H 86 Z" />
    </clipPath>
    <clipPath
       id="clipPath3725"
       clipPathUnits="userSpaceOnUse">
      <path
         inkscape:connector-curvature="0"
         id="path3723"
         d="M -13493,4537.503 H 14059.66 V -15016 H -13493 Z" />
    </clipPath>
    <clipPath
       id="clipPath3729"
       clipPathUnits="userSpaceOnUse">
      <path
         inkscape:connector-curvature="0"
         id="path3727"
         d="M 0,88 H 595 V 724.0771 H 0 Z" />
    </clipPath>
  </defs>
  <sodipodi:namedview
     pagecolor="#ffffff"
     bordercolor="#666666"
     borderopacity="1"
     objecttolerance="10"
     gridtolerance="10"
     guidetolerance="10"
     inkscape:pageopacity="0"
     inkscape:pageshadow="2"
     inkscape:window-width="2400"
     inkscape:window-height="1271"
     id="namedview3464"
     showgrid="false"
     inkscape:zoom="0.53636707"
     inkscape:cx="2198.7517"
     inkscape:cy="1149.9405"
     inkscape:window-x="1591"
     inkscape:window-y="-9"
     inkscape:window-maximized="1"
     inkscape:current-layer="svg3422" />
  <!-- Front-->
  <g
     transform="translate(22.5000185, 22.5000185) "
     id="g3424">
    <polygon
       style="stroke:#000000; fill:none; stroke-width:0.90000074"
       points="0, 0 0, 885.8275 1417.324, 885.8275 1417.324, 0"
       id="polygon3426" />
    <circle
       cx="1169.2923"
       cy="248.0317"
       r="132.874125"
       style="stroke:#000000;stroke-width:0.90000074;fill:none"
       id="circle3428" />
    <circle
       cx="248.0317"
       cy="248.0317"
       r="132.874125"
       style="stroke:#000000;stroke-width:0.90000074;fill:none"
       id="circle3430" />
  </g>
  <!-- Back-->
  <g
     transform="translate(1439.8240185, 22.5000185) "
     id="g3432">
    <polyline
       style="stroke:#000000; fill:none; stroke-width:0.90000074"
       points="0, 0 1417.324, 0 1417.324, 885.8275 0, 885.8275"
       id="polyline3434" />
  </g>
  <!-- Left-->
  <g
     transform="translate(2846.5180885, 33.1299485) "
     id="g3436">
    <polyline
       style="stroke:#000000; fill:none; stroke-width:0.90000074"
       points="10.62993, 10.62993 349.370366, 10.62993 349.370366, 875.19757 10.62993, 875.19757"
       id="polyline3438" />
  </g>
  <!-- Right-->
  <g
     transform="translate(2846.5180885, 897.6975885) "
     id="g3440">
    <polyline
       style="stroke:#000000; fill:none; stroke-width:0.90000074"
       points="349.370366, 10.62993 349.370366, 875.19757 10.62993, 875.19757 10.62993, 349.370366"
       id="polyline3442" />
  </g>
  <!-- Top-->
  <g
     transform="translate(22.5000185, 897.6975885) "
     id="g3444">
    <polyline
       style="stroke:#000000; fill:none; stroke-width:0.90000074"
       points="0, 10.62993 0, 349.370366 1417.324, 349.370366 1417.324, 10.62993"
       id="polyline3446" />
  </g>
  <!-- Bottom-->
  <polyline
     id="polyline3450"
     points="0, 349.370366 1417.324, 349.370366 1417.324, 10.62993"
     style="fill:none;stroke:#000000;stroke-width:0.90000075"
     transform="translate(1439.824,897.69759)" />
  <rect
     id="rect3452"
     style="fill:none;stroke:#000000;stroke-width:0.90000075"
     ry="0"
     rx="0"
     height="17.716551"
     width="35.433102"
     y="1228.6427"
     x="1616.9895" />
  <rect
     id="rect3454"
     style="fill:none;stroke:#000000;stroke-width:0.90000075"
     ry="0"
     rx="0"
     height="17.716551"
     width="35.433102"
     y="1228.6427"
     x="1616.9895" />
  <circle
     id="circle3456"
     style="fill:none;stroke:#000000;stroke-width:0.90000075"
     r="12.401585"
     cy="1077.6978"
     cx="2727.8171" />
  <circle
     id="circle3458"
     style="fill:none;stroke:#000000;stroke-width:0.90000075"
     r="10.62993"
     cy="1077.6978"
     cx="2507.4824" />
  <circle
     id="circle3460"
     style="fill:none;stroke:#000000;stroke-width:0.90000075"
     r="21.259859"
     cy="1077.6978"
     cx="2059.9033" />
  <circle
     id="circle3462"
     style="fill:none;stroke:#000000;stroke-width:0.90000075"
     r="21.259859"
     cy="1077.6978"
     cx="1882.7378" />
  <path
     style="fill:#ff0000"
     d="m -535.30179,350.86559 c -30.69687,-6.66669 -59.53815,-27.34636 -96.38944,-69.11283 -17.56923,-19.91256 -20.24949,-22.0884 -37.99908,-30.84767 -17.79099,-8.7797 -20.62458,-9.54276 -41.44618,-11.16106 -12.29226,-0.95539 -22.89262,-1.19402 -23.55635,-0.53029 -1.66297,1.66296 17.39803,18.40389 26.48501,23.26131 9.43403,5.04293 18.77442,16.32714 21.75828,26.28638 1.27597,4.25879 2.30489,14.03944 2.2865,21.73479 -0.0431,17.99218 -5.54755,28.72549 -16.95926,33.06881 -7.10591,2.70451 -8.42057,2.63691 -14.72314,-0.75724 -4.75401,-2.56021 -8.66728,-7.28373 -12.50019,-15.08846 -4.76546,-9.70356 -5.57612,-13.88249 -5.55529,-28.63755 0.0203,-13.95308 0.89932,-18.92198 4.57308,-25.83311 2.50178,-4.70638 4.54868,-9.39823 4.54868,-10.42632 0,-2.31638 -18.90173,-16.72615 -28.34741,-21.6107 -10.83278,-5.60185 -65.27266,-3.40238 -90.55252,3.65848 -35.39409,9.88584 -65.87513,25.10099 -107.12327,53.47246 -11.96758,8.23159 -23.17161,14.96653 -24.89785,14.96653 -4.68858,0 -11.26853,-7.48159 -11.26853,-12.81265 0,-3.40997 3.72887,-7.47928 13.71922,-14.97174 30.58002,-22.93411 65.32848,-39.17732 106.19694,-49.64193 18.4722,-4.72992 25.93069,-7.75935 35.56836,-14.44687 6.70717,-4.65407 22.71293,-15.53282 35.56835,-24.17499 18.85887,-12.67805 25.18801,-18.24247 32.76781,-28.80862 10.46549,-14.58878 28.13436,-30.19058 46.14435,-40.74594 6.55488,-3.84172 31.03831,-15.90957 54.40757,-26.81744 23.36926,-10.907874 50.49245,-23.833634 60.27375,-28.723914 9.78129,-4.89028 17.78417,-8.17413 17.78417,-7.29744 0,0.87668 -4.06044,8.71912 -9.0232,17.42764 -12.3909,21.743194 -29.72242,42.632794 -44.23526,53.316544 -19.4451,14.31466 -76.55166,41.78369 -107.38875,51.65544 -26.35174,8.43587 -38.69545,14.03808 -59.36846,26.94445 -12.60088,7.86685 -13.06909,12.68823 -1.01624,10.46462 4.75091,-0.87649 29.67417,-1.4814 55.38501,-1.34425 50.8566,0.27129 64.89968,-1.72877 89.96243,-12.8127 14.82328,-6.55557 18.77511,-10.26895 18.77511,-17.64233 0,-13.84995 12.8253,-28.92258 33.28596,-39.11856 17.02897,-8.4859 29.75145,-6.30259 34.8863,5.98685 8.51394,20.3767 -20.83822,48.28151 -50.78576,48.28151 -10.38417,0 -15.23543,1.41839 -31.42104,9.18672 -12.87248,6.17819 -18.20149,9.68209 -16.2724,10.69932 1.57767,0.83193 18.55406,3.1837 37.72528,5.22617 37.82637,4.02996 44.37079,3.57067 78.4419,-5.50506 12.31732,-3.28105 20.71413,-7.48771 38.61707,-19.34651 21.56153,-14.28225 106.7932,-58.09978 139.36177,-71.64579 17.2288,-7.16584 17.1366,-7.40105 6.0555,15.45177 -23.50607,48.47689 -80.12922,79.44406 -147.94594,80.91166 -23.28467,0.50389 -44.4392,4.21544 -41.28963,7.24424 2.63222,2.53131 71.53198,10.05301 92.08691,10.05301 h 18.66953 l 8.61847,-8.86776 c 10.80435,-11.11685 25.02924,-16.24244 45.55289,-16.4138 14.32637,-0.11961 15.12907,0.13136 20.83287,6.51321 7.5003,8.39199 7.6918,16.36549 0.5955,24.79896 -7.8486,9.32744 -20.03887,14.75517 -35.65727,15.87632 -16.15364,1.15961 -20.92986,0.14695 -30.7542,-6.51995 -6.77161,-4.59533 -10.4408,-5.22557 -41.51721,-7.13115 -18.74904,-1.14967 -40.82563,-2.65087 -49.05911,-3.33598 -9.77679,-0.81354 -14.71233,-0.52974 -14.22734,0.81809 0.40844,1.13506 9.22848,7.62529 19.60007,14.42273 15.79109,10.34931 20.29803,12.35896 27.71686,12.35896 12.36632,0 26.36962,9.77949 34.27157,23.93423 10.76857,19.28974 11.3913,32.66139 1.96026,42.09243 -8.90353,8.90353 -20.31595,5.79121 -33.9003,-9.24505 -9.92948,-10.99075 -15.53408,-23.85334 -16.88497,-38.75113 -0.59354,-6.54582 -2.09607,-12.74443 -3.33891,-13.77465 -5.04083,-4.17851 -29.95175,-17.4162 -50.24632,-26.70097 -20.4792,-9.36923 -23.07498,-10.02437 -51.58285,-13.01881 -34.53273,-3.62729 -37.6228,-3.75073 -37.6228,-1.50286 0,4.49444 13.93389,11.31098 28.17704,13.78436 24.19319,4.20124 42.83135,14.53544 62.68069,34.75428 9.16977,9.34045 23.35735,24.96307 31.52795,34.71693 22.29783,26.61856 21.19872,24.87521 15.56352,24.68637 -2.65206,-0.0888 -10.56128,-1.40804 -17.57606,-2.9315 z"
     id="path3573"
     inkscape:connector-curvature="0" />
  <g
     id="g3707"
     transform="matrix(1.250001,0,0,-1.250001,-714.09842,281.81903)" />
  <g
     clip-path="url(#clipPath3715)"
     id="g3711"
     transform="matrix(0.24592497,0,0,-0.24592497,669.67804,1175.4561)">
    <g
       id="g3717" />
    <g
       id="g3745">
      <g
         id="g3743"
         clip-path="url(#clipPath3721)">
        <g
           id="g3731" />
        <g
           id="g3741">
          <g
             id="g3739"
             clip-path="url(#clipPath3725)">
            <g
               id="g3737"
               clip-path="url(#clipPath3729)">
              <path
                 inkscape:connector-curvature="0"
                 id="path3733"
                 style="fill:#27963c;fill-opacity:1;fill-rule:nonzero;stroke:none"
                 d="m 236.7746,139.0354 c 29.348,31.6683 51.6099,66.8483 62.145,108.8009 9.0302,35.9953 9.1556,72.6803 8.654,109.4281 -0.0628,3.7625 0,7.5251 0,11.2877 2.8846,-9.5319 4.5777,-19.0637 6.9607,-28.4074 5.6439,-22.0737 12.8554,-43.5204 28.5328,-60.8909 27.2159,-30.226 73.6209,-24.7075 92.4338,11.3504 4.954,9.4691 7.7759,20.067 11.225,29.0972 9.7826,3.6371 19.628,6.1455 28.4074,10.6606 39.3188,20.067 42.1407,72.4294 6.0201,97.8268 -17.8095,12.4792 -37.3749,20.3806 -58.2571,24.2058 -29.4735,5.3303 -59.3232,8.7794 -79.7665,11.7267 14.4859,1.7559 38.4409,3.888 62.2078,7.5251 25.5855,3.9507 50.4811,10.8488 72.3667,25.4601 24.7703,16.4926 34.4275,41.3255 25.9618,67.7262 -7.4625,23.2025 -25.6482,34.6784 -47.9101,39.7578 -8.2149,1.8813 -10.6606,5.4557 -12.4792,12.9809 -7.7132,32.7343 -30.4768,51.359 -60.5773,50.1676 -22.5127,-0.878 -37.9392,-13.3572 -49.1015,-31.7937 -15.9282,-26.2753 -21.9483,-55.7488 -25.9617,-85.6612 -2.0694,-15.4892 -3.1982,-31.0412 -4.766,-46.5931 -1.3169,2.2575 -1.6304,4.6405 -1.9439,7.0862 -2.383,20.4432 -3.888,41.0747 -7.3998,61.3925 -4.4523,26.0872 -11.9148,51.3591 -28.6582,72.8057 -17.3705,22.1992 -45.0881,29.2226 -70.1092,17.496 -18.9382,-8.8421 -28.5955,-25.3347 -33.1106,-44.7119 -1.8813,-8.0895 -5.0795,-11.4758 -13.2317,-13.3571 -20.6941,-4.8286 -37.8138,-15.2384 -45.966,-36.1834 -11.22502,-28.8463 0,-56.9402 29.5361,-74.3107 20.8196,-12.2283 43.7085,-18.6874 67.35,-22.2619 23.6415,-3.5117 47.5965,-5.7692 68.3533,-8.2149 -8.0895,-0.5644 -19.2518,-1.3169 -30.4141,-2.2575 -34.1139,-2.9474 -67.977,-8.0268 -98.7047,-23.8923 -11.3504,-5.832 -23.0143,-14.3605 -29.9751,-24.7703 -21.8856,-32.6089 -8.6539,-72.3667 28.7209,-85.2222 15.3012,-5.2676 26.0872,-10.786 27.7176,-28.0311 0.3763,-3.6998 3.1982,-7.2743 5.2049,-10.7233 17.9976,-31.292 58.3825,-38.3782 85.7866,-14.8622 12.5419,10.7234 20.2551,24.7703 25.8363,40.0087 3.2609,8.9047 6.0201,17.9349 8.4658,27.0278 2.3829,9.0301 4.0761,18.3111 6.3963,28.909 -2.9473,-80.2054 -18.0603,-153.9517 -84.4069,-206.6277 8.5912,-8.403 16.179,-15.8028 24.4567,-23.955" />
              <path
                 inkscape:connector-curvature="0"
                 id="path3735"
                 style="fill:#27963c;fill-opacity:1;fill-rule:nonzero;stroke:none"
                 d="m 236.7746,139.0354 c -8.2777,8.1522 -15.8655,15.552 -24.4567,23.955 66.3466,52.676 81.4596,126.4223 84.4069,206.6277 -2.3202,-10.5979 -4.0134,-19.8789 -6.3963,-28.909 -2.4457,-9.0929 -5.2049,-18.1231 -8.4658,-27.0278 -5.5812,-15.2384 -13.2944,-29.2853 -25.8363,-40.0087 -27.4041,-23.516 -67.789,-16.4298 -85.7866,14.8622 -2.0067,3.449 -4.8286,7.0235 -5.2049,10.7233 -1.6304,17.2451 -12.4164,22.7635 -27.7176,28.0311 -37.3748,12.8555 -50.6065,52.6133 -28.7209,85.2222 6.9608,10.4098 18.6247,18.9383 29.9751,24.7703 30.7277,15.8655 64.5908,20.9449 98.7047,23.8923 11.1623,0.9406 22.3246,1.6931 30.4141,2.2575 -20.7568,2.4457 -44.7118,4.7032 -68.3533,8.2149 -23.6415,3.5745 -46.5304,10.0336 -67.35,22.2619 -29.5361,17.3705 -40.76112,45.4644 -29.5361,74.3107 8.1522,20.945 25.2719,31.3548 45.966,36.1834 8.1522,1.8813 11.3504,5.2676 13.2317,13.3571 4.5151,19.3772 14.1724,35.8698 33.1106,44.7119 25.0211,11.7266 52.7387,4.7032 70.1092,-17.496 16.7434,-21.4466 24.2059,-46.7185 28.6582,-72.8057 3.5118,-20.3178 5.0168,-40.9493 7.3998,-61.3925 0.3135,-2.4457 0.627,-4.8287 1.9439,-7.0862 1.5678,15.5519 2.6966,31.1039 4.766,46.5931 4.0134,29.9124 10.0335,59.3859 25.9617,85.6612 11.1623,18.4365 26.5888,30.9157 49.1015,31.7937 30.1005,1.1914 52.8641,-17.4333 60.5773,-50.1676 1.8186,-7.5252 4.2643,-11.0996 12.4792,-12.9809 22.2619,-5.0794 40.4476,-16.5553 47.9101,-39.7578 8.4657,-26.4007 -1.1915,-51.2336 -25.9618,-67.7262 -21.8856,-14.6113 -46.7812,-21.5094 -72.3667,-25.4601 -23.7669,-3.6371 -47.7219,-5.7692 -62.2078,-7.5251 20.4433,-2.9473 50.293,-6.3964 79.7665,-11.7267 20.8822,-3.8252 40.4476,-11.7266 58.2571,-24.2058 36.1206,-25.3974 33.2987,-77.7598 -6.0201,-97.8268 -8.7794,-4.5151 -18.6248,-7.0235 -28.4074,-10.6606 -3.4491,-9.0302 -6.271,-19.6281 -11.225,-29.0972 -18.8129,-36.0579 -65.2179,-41.5764 -92.4338,-11.3504 -15.6774,17.3705 -22.8889,38.8172 -28.5328,60.8909 -2.383,9.3437 -4.0761,18.8755 -6.9607,28.4074 0,-3.7626 -0.0628,-7.5252 0,-11.2877 0.5016,-36.7478 0.3762,-73.4328 -8.654,-109.4281 -10.5351,-41.9526 -32.797,-77.1326 -62.145,-108.8009" />
            </g>
          </g>
        </g>
      </g>
    </g>
  </g>
  <text
     xml:space="preserve"
     style="font-style:normal;font-weight:normal;font-size:37.50003052px;line-height:1.25;font-family:sans-serif;letter-spacing:0px;word-spacing:0px;fill:#000000;fill-opacity:1;stroke:none;stroke-width:0.93750077"
     x="571.00055"
     y="761.16931"
     id="text3807"><tspan
       sodipodi:role="line"
       id="tspan3805"
       x="571.00055"
       y="761.16931"
       style="font-style:normal;font-variant:normal;font-weight:normal;font-stretch:normal;font-size:180.00015259px;font-family:'Calisto MT';-inkscape-font-specification:'Calisto MT, Normal';font-variant-ligatures:normal;font-variant-caps:normal;font-variant-numeric:normal;font-feature-settings:normal;text-align:start;writing-mode:lr-tb;text-anchor:start;stroke-width:0.93750077">felix</tspan></text>
  <circle
     id="circle3458-7"
     style="fill:none;stroke:#000000;stroke-width:0.90000075"
     r="10.62993"
     cy="1077.0511"
     cx="2353.7297" />
  <circle
     id="circle3458-6"
     style="fill:none;stroke:#000000;stroke-width:0.90000075"
     r="10.62993"
     cy="1077.0511"
     cx="2430.6047" />
  <text
     xml:space="preserve"
     style="font-style:normal;font-weight:normal;font-size:37.50003052px;line-height:1.25;font-family:sans-serif;letter-spacing:0px;word-spacing:0px;fill:#000000;fill-opacity:1;stroke:none;stroke-width:0.93750077"
     x="1866.1893"
     y="1140.1045"
     id="text3846"><tspan
       sodipodi:role="line"
       id="tspan3844"
       x="1866.1893"
       y="1140.1045"
       style="stroke-width:0.93750077">+</tspan></text>
  <text
     xml:space="preserve"
     style="font-style:normal;font-weight:normal;font-size:37.50003052px;line-height:1.25;font-family:sans-serif;letter-spacing:0px;word-spacing:0px;fill:#000000;fill-opacity:1;stroke:none;stroke-width:0.93750077"
     x="2053.051"
     y="1143.6099"
     id="text3868"><tspan
       sodipodi:role="line"
       id="tspan3866"
       x="2053.051"
       y="1143.6099"
       style="stroke-width:0.93750077">-</tspan></text>
  <text
     xml:space="preserve"
     style="font-style:normal;font-weight:normal;font-size:37.50003052px;line-height:1.25;font-family:sans-serif;letter-spacing:0px;word-spacing:0px;fill:#000000;fill-opacity:1;stroke:none;stroke-width:0.93750077"
     x="2319.4255"
     y="1141.9766"
     id="text3872"><tspan
       sodipodi:role="line"
       id="tspan3870"
       x="2319.4255"
       y="1141.9766"
       style="stroke-width:0.93750077">pwr</tspan></text>
  <text
     xml:space="preserve"
     style="font-style:normal;font-weight:normal;font-size:37.50003052px;line-height:1.25;font-family:sans-serif;letter-spacing:0px;word-spacing:0px;fill:#000000;fill-opacity:1;stroke:none;stroke-width:0.93750077"
     x="2398.0796"
     y="1141.9767"
     id="text3876"><tspan
       sodipodi:role="line"
       id="tspan3874"
       x="2398.0796"
       y="1141.9767"
       style="stroke-width:0.93750077">card</tspan></text>
  <text
     xml:space="preserve"
     style="font-style:normal;font-weight:normal;font-size:37.50003052px;line-height:1.25;font-family:sans-serif;letter-spacing:0px;word-spacing:0px;fill:#000000;fill-opacity:1;stroke:none;stroke-width:0.93750077"
     x="2488.9692"
     y="1141.9766"
     id="text3880"><tspan
       sodipodi:role="line"
       id="tspan3878"
       x="2488.9692"
       y="1141.9766"
       style="stroke-width:0.93750077">rdy</tspan></text>
  <text
     xml:space="preserve"
     style="font-style:normal;font-weight:normal;font-size:37.50003052px;line-height:1.25;font-family:sans-serif;letter-spacing:0px;word-spacing:0px;fill:#000000;fill-opacity:1;stroke:none;stroke-width:0.93750077"
     x="2707.4531"
     y="1143.7245"
     id="text3910"><tspan
       sodipodi:role="line"
       id="tspan3908"
       x="2707.4531"
       y="1143.7245"
       style="stroke-width:0.93750077">off</tspan></text>
  <text
     xml:space="preserve"
     style="font-style:normal;font-weight:normal;font-size:37.50003052px;line-height:1.25;font-family:sans-serif;letter-spacing:0px;word-spacing:0px;fill:#000000;fill-opacity:1;stroke:none;stroke-width:0.93750077"
     x="2703.9573"
     y="1038.8523"
     id="text3914"><tspan
       sodipodi:role="line"
       id="tspan3912"
       x="2703.9573"
       y="1038.8523"
       style="stroke-width:0.93750077">on</tspan></text>
</svg>
