<?xml version="1.0" encoding="UTF-8" standalone="no"?>
<svg
   xmlns:dc="http://purl.org/dc/elements/1.1/"
   xmlns:cc="http://creativecommons.org/ns#"
   xmlns:rdf="http://www.w3.org/1999/02/22-rdf-syntax-ns#"
   xmlns:svg="http://www.w3.org/2000/svg"
   xmlns="http://www.w3.org/2000/svg"
   xmlns:sodipodi="http://sodipodi.sourceforge.net/DTD/sodipodi-0.dtd"
   xmlns:inkscape="http://www.inkscape.org/namespaces/inkscape"
   version="1.1"
   width="914.3000000000001mm"
   height="512.7mm"
   viewBox=" 0 0 3239.648333 1816.6550370000002"
   id="svg3422"
   inkscape:version="0.91 r13725"
   sodipodi:docname="caseplans-felix.svg">
  <metadata
     id="metadata3468">
    <rdf:RDF>
      <cc:Work
         rdf:about="">
        <dc:format>image/svg+xml</dc:format>
        <dc:type
           rdf:resource="http://purl.org/dc/dcmitype/StillImage" />
        <dc:title />
      </cc:Work>
    </rdf:RDF>
  </metadata>
  <defs
     id="defs3466">
    <clipPath
       id="clipPath3715"
       clipPathUnits="userSpaceOnUse">
      <path
         inkscape:connector-curvature="0"
         id="path3713"
         d="M 0,88 H 595 V 754 H 0 Z" />
    </clipPath>
    <clipPath
       id="clipPath3721"
       clipPathUnits="userSpaceOnUse">
      <path
         inkscape:connector-curvature="0"
         id="path3719"
         d="M 86,139 H 518 V 675 H 86 Z" />
    </clipPath>
    <clipPath
       id="clipPath3725"
       clipPathUnits="userSpaceOnUse">
      <path
         inkscape:connector-curvature="0"
         id="path3723"
         d="M -13493,4537.503 H 14059.66 V -15016 H -13493 Z" />
    </clipPath>
    <clipPath
       id="clipPath3729"
       clipPathUnits="userSpaceOnUse">
      <path
         inkscape:connector-curvature="0"
         id="path3727"
         d="M 0,88 H 595 V 724.0771 H 0 Z" />
    </clipPath>
  </defs>
  <sodipodi:namedview
     pagecolor="#ffffff"
     bordercolor="#666666"
     borderopacity="1"
     objecttolerance="10"
     gridtolerance="10"
     guidetolerance="10"
     inkscape:pageopacity="0"
     inkscape:pageshadow="2"
     inkscape:window-width="1440"
     inkscape:window-height="856"
     id="namedview3464"
     showgrid="false"
     inkscape:zoom="0.4784686"
     inkscape:cx="1752.1729"
     inkscape:cy="620.04304"
     inkscape:window-x="3"
     inkscape:window-y="29"
     inkscape:window-maximized="0"
     inkscape:current-layer="text3876" />
  <!-- Front-->
  <polygon
     id="polygon3426"
     points="1417.324,885.8275 1417.324,0 0,0 0,885.8275 "
     style="fill:none;stroke:#000000;stroke-width:0.90000075"
     transform="translate(22.500018,22.500018)" />
  <!-- Back-->
  <g
     transform="translate(1439.8240185, 22.5000185) "
     id="g3432">
    <polyline
       style="stroke:#000000; fill:none; stroke-width:0.90000074"
       points="0, 0 1417.324, 0 1417.324, 885.8275 0, 885.8275"
       id="polyline3434" />
  </g>
  <!-- Left-->
  <g
     transform="translate(2846.5180885, 33.1299485) "
     id="g3436">
    <polyline
       style="stroke:#000000; fill:none; stroke-width:0.90000074"
       points="10.62993, 10.62993 349.370366, 10.62993 349.370366, 875.19757 10.62993, 875.19757"
       id="polyline3438" />
  </g>
  <!-- Right-->
  <g
     transform="translate(2846.5180885, 897.6975885) "
     id="g3440">
    <polyline
       style="stroke:#000000; fill:none; stroke-width:0.90000074"
       points="349.370366, 10.62993 349.370366, 875.19757 10.62993, 875.19757 10.62993, 349.370366"
       id="polyline3442" />
  </g>
  <!-- Top-->
  <g
     transform="translate(22.5000185, 897.6975885) "
     id="g3444">
    <polyline
       style="stroke:#000000; fill:none; stroke-width:0.90000074"
       points="0, 10.62993 0, 349.370366 1417.324, 349.370366 1417.324, 10.62993"
       id="polyline3446" />
  </g>
  <!-- Bottom-->
  <polyline
     id="polyline3450"
     points="0, 349.370366 1417.324, 349.370366 1417.324, 10.62993"
     style="fill:none;stroke:#000000;stroke-width:0.90000075"
     transform="translate(1439.824,897.69759)" />
  <rect
     id="rect3452"
     style="fill:none;stroke:#000000;stroke-width:0.90000075"
     ry="0"
     rx="0"
     height="17.716551"
     width="35.433102"
     y="1228.6427"
     x="1616.9895" />
  <rect
     id="rect3454"
     style="fill:none;stroke:#000000;stroke-width:0.90000075"
     ry="0"
     rx="0"
     height="17.716551"
     width="35.433102"
     y="1228.6427"
     x="1616.9895" />
  <circle
     id="circle3456"
     style="fill:none;stroke:#000000;stroke-width:0.90000075"
     r="12.401585"
     cy="1077.6978"
     cx="2727.8171" />
  <circle
     id="circle3458"
     style="fill:none;stroke:#000000;stroke-width:0.97137922"
     r="11.472982"
     cy="1076.1707"
     cx="2508.3611" />
  <circle
     id="circle3460"
     style="fill:none;stroke:#000000;stroke-width:0.90000075"
     r="21.259859"
     cy="1077.6978"
     cx="2059.9033" />
  <circle
     id="circle3462"
     style="fill:none;stroke:#000000;stroke-width:0.90000075"
     r="21.259859"
     cy="1077.6978"
     cx="1882.7378" />
  <g
     id="g3707"
     transform="matrix(1.250001,0,0,-1.250001,-714.09842,281.81903)" />
  <g
     clip-path="url(#clipPath3715)"
     id="g3711"
     transform="matrix(0.24592497,0,0,-0.24592497,621.20373,1181.5917)"
     style="fill:#ff0000">
    <g
       id="g3717"
       style="fill:#ff0000" />
    <g
       id="g3745"
       style="fill:#ff0000">
      <g
         id="g3743"
         clip-path="url(#clipPath3721)"
         style="fill:#ff0000">
        <g
           id="g3731"
           style="fill:#ff0000" />
        <g
           id="g3741"
           style="fill:#ff0000">
          <g
             id="g3739"
             clip-path="url(#clipPath3725)"
             style="fill:#ff0000">
            <g
               id="g3737"
               clip-path="url(#clipPath3729)"
               style="fill:#ff0000">
              <path
                 inkscape:connector-curvature="0"
                 id="path3733"
                 style="fill:#ff0000;fill-opacity:1;fill-rule:nonzero;stroke:none"
                 d="m 236.7746,139.0354 c 29.348,31.6683 51.6099,66.8483 62.145,108.8009 9.0302,35.9953 9.1556,72.6803 8.654,109.4281 -0.0628,3.7625 0,7.5251 0,11.2877 2.8846,-9.5319 4.5777,-19.0637 6.9607,-28.4074 5.6439,-22.0737 12.8554,-43.5204 28.5328,-60.8909 27.2159,-30.226 73.6209,-24.7075 92.4338,11.3504 4.954,9.4691 7.7759,20.067 11.225,29.0972 9.7826,3.6371 19.628,6.1455 28.4074,10.6606 39.3188,20.067 42.1407,72.4294 6.0201,97.8268 -17.8095,12.4792 -37.3749,20.3806 -58.2571,24.2058 -29.4735,5.3303 -59.3232,8.7794 -79.7665,11.7267 14.4859,1.7559 38.4409,3.888 62.2078,7.5251 25.5855,3.9507 50.4811,10.8488 72.3667,25.4601 24.7703,16.4926 34.4275,41.3255 25.9618,67.7262 -7.4625,23.2025 -25.6482,34.6784 -47.9101,39.7578 -8.2149,1.8813 -10.6606,5.4557 -12.4792,12.9809 -7.7132,32.7343 -30.4768,51.359 -60.5773,50.1676 -22.5127,-0.878 -37.9392,-13.3572 -49.1015,-31.7937 -15.9282,-26.2753 -21.9483,-55.7488 -25.9617,-85.6612 -2.0694,-15.4892 -3.1982,-31.0412 -4.766,-46.5931 -1.3169,2.2575 -1.6304,4.6405 -1.9439,7.0862 -2.383,20.4432 -3.888,41.0747 -7.3998,61.3925 -4.4523,26.0872 -11.9148,51.3591 -28.6582,72.8057 -17.3705,22.1992 -45.0881,29.2226 -70.1092,17.496 -18.9382,-8.8421 -28.5955,-25.3347 -33.1106,-44.7119 -1.8813,-8.0895 -5.0795,-11.4758 -13.2317,-13.3571 -20.6941,-4.8286 -37.8138,-15.2384 -45.966,-36.1834 -11.22502,-28.8463 0,-56.9402 29.5361,-74.3107 20.8196,-12.2283 43.7085,-18.6874 67.35,-22.2619 23.6415,-3.5117 47.5965,-5.7692 68.3533,-8.2149 -8.0895,-0.5644 -19.2518,-1.3169 -30.4141,-2.2575 -34.1139,-2.9474 -67.977,-8.0268 -98.7047,-23.8923 -11.3504,-5.832 -23.0143,-14.3605 -29.9751,-24.7703 -21.8856,-32.6089 -8.6539,-72.3667 28.7209,-85.2222 15.3012,-5.2676 26.0872,-10.786 27.7176,-28.0311 0.3763,-3.6998 3.1982,-7.2743 5.2049,-10.7233 17.9976,-31.292 58.3825,-38.3782 85.7866,-14.8622 12.5419,10.7234 20.2551,24.7703 25.8363,40.0087 3.2609,8.9047 6.0201,17.9349 8.4658,27.0278 2.3829,9.0301 4.0761,18.3111 6.3963,28.909 -2.9473,-80.2054 -18.0603,-153.9517 -84.4069,-206.6277 8.5912,-8.403 16.179,-15.8028 24.4567,-23.955" />
              <path
                 inkscape:connector-curvature="0"
                 id="path3735"
                 style="fill:#ff0000;fill-opacity:1;fill-rule:nonzero;stroke:none"
                 d="m 236.7746,139.0354 c -8.2777,8.1522 -15.8655,15.552 -24.4567,23.955 66.3466,52.676 81.4596,126.4223 84.4069,206.6277 -2.3202,-10.5979 -4.0134,-19.8789 -6.3963,-28.909 -2.4457,-9.0929 -5.2049,-18.1231 -8.4658,-27.0278 -5.5812,-15.2384 -13.2944,-29.2853 -25.8363,-40.0087 -27.4041,-23.516 -67.789,-16.4298 -85.7866,14.8622 -2.0067,3.449 -4.8286,7.0235 -5.2049,10.7233 -1.6304,17.2451 -12.4164,22.7635 -27.7176,28.0311 -37.3748,12.8555 -50.6065,52.6133 -28.7209,85.2222 6.9608,10.4098 18.6247,18.9383 29.9751,24.7703 30.7277,15.8655 64.5908,20.9449 98.7047,23.8923 11.1623,0.9406 22.3246,1.6931 30.4141,2.2575 -20.7568,2.4457 -44.7118,4.7032 -68.3533,8.2149 -23.6415,3.5745 -46.5304,10.0336 -67.35,22.2619 -29.5361,17.3705 -40.76112,45.4644 -29.5361,74.3107 8.1522,20.945 25.2719,31.3548 45.966,36.1834 8.1522,1.8813 11.3504,5.2676 13.2317,13.3571 4.5151,19.3772 14.1724,35.8698 33.1106,44.7119 25.0211,11.7266 52.7387,4.7032 70.1092,-17.496 16.7434,-21.4466 24.2059,-46.7185 28.6582,-72.8057 3.5118,-20.3178 5.0168,-40.9493 7.3998,-61.3925 0.3135,-2.4457 0.627,-4.8287 1.9439,-7.0862 1.5678,15.5519 2.6966,31.1039 4.766,46.5931 4.0134,29.9124 10.0335,59.3859 25.9617,85.6612 11.1623,18.4365 26.5888,30.9157 49.1015,31.7937 30.1005,1.1914 52.8641,-17.4333 60.5773,-50.1676 1.8186,-7.5252 4.2643,-11.0996 12.4792,-12.9809 22.2619,-5.0794 40.4476,-16.5553 47.9101,-39.7578 8.4657,-26.4007 -1.1915,-51.2336 -25.9618,-67.7262 -21.8856,-14.6113 -46.7812,-21.5094 -72.3667,-25.4601 -23.7669,-3.6371 -47.7219,-5.7692 -62.2078,-7.5251 20.4433,-2.9473 50.293,-6.3964 79.7665,-11.7267 20.8822,-3.8252 40.4476,-11.7266 58.2571,-24.2058 36.1206,-25.3974 33.2987,-77.7598 -6.0201,-97.8268 -8.7794,-4.5151 -18.6248,-7.0235 -28.4074,-10.6606 -3.4491,-9.0302 -6.271,-19.6281 -11.225,-29.0972 -18.8129,-36.0579 -65.2179,-41.5764 -92.4338,-11.3504 -15.6774,17.3705 -22.8889,38.8172 -28.5328,60.8909 -2.383,9.3437 -4.0761,18.8755 -6.9607,28.4074 0,-3.7626 -0.0628,-7.5252 0,-11.2877 0.5016,-36.7478 0.3762,-73.4328 -8.654,-109.4281 -10.5351,-41.9526 -32.797,-77.1326 -62.145,-108.8009" />
            </g>
          </g>
        </g>
      </g>
    </g>
  </g>
  <g
     style="font-style:normal;font-weight:normal;font-size:37.50003052px;line-height:1.25;font-family:sans-serif;letter-spacing:0px;word-spacing:0px;fill:#000000;fill-opacity:1;stroke:none;stroke-width:0.93750077"
     id="text3807">
    <path
       d="m 540.14734,782.64447 0,-4.92188 q 10.81056,-2.46094 11.86525,-4.39453 1.40625,-2.54883 1.40625,-34.27738 0,-15.46876 0.26367,-31.02541 -6.41602,0.17578 -12.65626,0.79101 l 0,-4.21875 q 6.50391,-2.63672 12.65626,-6.32813 0.0879,-15.1172 0.87891,-18.63283 1.31836,-6.32813 6.50391,-12.56837 5.18555,-6.24024 13.62306,-10.45899 6.06446,-3.16407 13.09571,-3.16407 5.27344,0 9.75587,1.23047 4.48243,1.23047 11.42579,4.7461 -3.33985,9.14063 -6.06446,18.80861 l -4.83399,-0.61523 q -1.31836,-8.78907 -5.18555,-12.39259 -3.7793,-3.60352 -10.01954,-3.60352 -5.44922,0 -9.05274,3.42774 -3.51563,3.42773 -4.92188,10.45899 -0.9668,4.65821 -0.9668,18.8965 0,1.75781 0.0879,5.18555 6.24024,0.17578 7.47071,0.17578 l 14.94142,-0.17578 1.14258,1.14258 q -2.72461,3.7793 -4.48242,8.08594 -9.66798,-0.61523 -19.07229,-0.79101 -0.17578,12.56837 -0.17578,32.69534 l 0.17578,22.93947 0,1.05469 q 0,6.94336 1.40626,8.5254 1.49414,1.58203 11.3379,3.7793 1.05468,0.26367 2.98828,0.70312 l 0,4.92188 q -11.86524,-0.9668 -20.39064,-0.9668 -7.47071,0 -23.20315,0.9668 z"
       style="font-style:normal;font-variant:normal;font-weight:normal;font-stretch:normal;font-size:180.00015259px;font-family:'Calisto MT';-inkscape-font-specification:'Calisto MT, Normal';text-align:start;writing-mode:lr-tb;text-anchor:start;stroke-width:0.93750077;fill:#ff0000"
       id="path4281" />
    <path
       d="m 664.3369,761.37492 3.33985,5.18555 -17.49025,12.91994 q -3.60352,2.46094 -7.47071,3.60351 -5.62501,1.66993 -11.51368,1.66993 -14.32619,0 -24.52151,-11.51368 -10.10743,-11.51369 -10.10743,-31.11331 0,-21.09377 12.12892,-33.83792 12.21681,-12.74415 29.79495,-12.74415 13.62305,0 21.00587,7.5586 7.47071,7.47071 7.64649,22.93947 -3.69141,2.10938 -6.76758,5.18555 -6.24024,-0.0879 -7.82227,-0.0879 -23.29104,0 -40.51762,0.70313 -0.0879,19.68751 6.6797,29.79494 6.76758,10.19532 18.10548,10.19532 5.7129,0 11.95314,-2.19726 6.24024,-2.28516 15.55665,-8.26173 z M 651.50486,722.8788 q -0.52735,-8.70118 -3.86719,-13.18361 -4.92188,-6.5918 -13.2715,-6.5918 -7.20704,0 -12.83204,5.00977 -5.625,4.92188 -8.34962,16.34767 3.25196,0.0879 4.92188,0.0879 14.41408,0 33.39847,-1.66992 z"
       style="font-style:normal;font-variant:normal;font-weight:normal;font-stretch:normal;font-size:180.00015259px;font-family:'Calisto MT';-inkscape-font-specification:'Calisto MT, Normal';text-align:start;writing-mode:lr-tb;text-anchor:start;stroke-width:0.93750077;fill:#ff0000"
       id="path4283" />
    <path
       d="m 675.32324,669.79281 0,-4.83399 q 15.64455,-5.00977 28.30081,-11.51368 l 2.37305,1.58204 q -2.10938,16.52345 -2.10938,61.43559 0,45.35161 0.35156,50.18559 0.35157,4.7461 1.9336,6.41602 1.66992,1.58204 12.74415,4.65821 l 0,4.92188 q -14.1504,-0.9668 -21.97267,-0.9668 -8.34962,0 -21.62112,0.9668 l 0,-4.92188 q 11.95314,-3.69141 13.00783,-4.7461 1.05469,-1.05468 1.31836,-5.09766 0.26367,-5.36133 0.26367,-48.42777 l -0.17578,-41.74808 0,-1.23047 q 0,-4.83399 -1.31836,-6.32813 -1.31836,-1.49415 -4.13086,-1.49415 -2.37305,0 -8.96486,1.14258 z"
       style="font-style:normal;font-variant:normal;font-weight:normal;font-stretch:normal;font-size:180.00015259px;font-family:'Calisto MT';-inkscape-font-specification:'Calisto MT, Normal';text-align:start;writing-mode:lr-tb;text-anchor:start;stroke-width:0.93750077;fill:#ff0000"
       id="path4285" />
    <path
       d="m 748.00884,653.26936 q 3.86719,0 6.50391,2.72461 2.72462,2.63672 2.72462,6.50391 0,3.7793 -2.72462,6.50392 -2.63672,2.72461 -6.50391,2.72461 -3.7793,0 -6.50391,-2.72461 -2.63672,-2.72462 -2.63672,-6.50392 0,-3.86719 2.63672,-6.50391 2.72461,-2.72461 6.50391,-2.72461 z m -21.88478,58.44732 0,-4.92188 q 14.76564,-3.7793 27.77346,-11.25001 l 2.28516,1.8457 q -1.75782,18.63283 -1.75782,52.82231 0,15.99611 0.79102,19.68752 0.52734,2.46094 1.8457,3.60352 1.31836,1.05469 9.14064,3.33984 0.96679,0.26368 2.90039,0.87891 l 0,4.92188 q -11.51368,-0.9668 -18.8965,-0.9668 -4.48243,0 -24.08205,0.9668 l 0,-4.92188 q 11.86524,-2.90039 13.35938,-5.27344 1.49415,-2.46094 1.49415,-25.31252 l -0.0879,-18.72072 0,-3.60352 q 0,-9.84376 -1.31836,-11.86524 -1.31837,-2.02149 -4.21876,-2.02149 -1.8457,0 -9.22852,0.79102 z"
       style="font-style:normal;font-variant:normal;font-weight:normal;font-stretch:normal;font-size:180.00015259px;font-family:'Calisto MT';-inkscape-font-specification:'Calisto MT, Normal';text-align:start;writing-mode:lr-tb;text-anchor:start;stroke-width:0.93750077;fill:#ff0000"
       id="path4287" />
    <path
       d="m 778.50692,703.45495 0,-4.92188 q 10.72266,0.9668 18.72072,0.9668 7.82227,0 20.21486,-0.9668 l 0,4.92188 q -1.40625,0.26367 -2.19727,0.35156 -3.25196,0.52735 -4.83399,1.66993 -0.79101,0.61523 -0.79101,1.66992 0,3.7793 12.30469,21.09377 7.5586,-8.96485 11.86525,-16.34767 2.28516,-3.69141 2.28516,-5.09766 0,-1.23047 -0.79102,-1.75782 -1.23047,-1.05469 -4.48243,-1.40625 l -1.23047,-0.17578 0,-4.92188 q 7.47071,0.9668 14.32619,0.9668 6.15235,0 16.25978,-0.9668 l 0,4.92188 q -5.53712,0.52734 -8.34962,2.10938 -2.72461,1.58203 -6.15235,5.80078 l -19.33595,23.81838 q 22.32424,34.0137 25.66408,37.44144 2.46094,2.54883 11.3379,5.09766 l 0,4.92188 q -11.86524,-0.9668 -19.59962,-0.9668 -8.34962,0 -18.8965,0.9668 l 0,-4.92188 q 1.05468,-0.26367 1.66992,-0.35156 4.57032,-0.9668 5.7129,-2.02149 0.96679,-0.79101 0.96679,-2.02148 0,-1.58204 -1.23047,-3.86719 -3.07617,-5.97657 -14.50196,-22.6758 -19.33596,22.76369 -19.33596,26.63088 0,1.31836 0.87891,2.02148 1.84571,1.31836 6.67969,2.02149 0.61524,0.0879 1.66993,0.26367 l 0,4.92188 q -10.28321,-0.9668 -16.43556,-0.9668 -6.41602,0 -16.96291,0.9668 l 0,-4.92188 q 7.29493,-1.23047 10.19532,-3.69141 2.9004,-2.54883 28.47659,-34.27737 -2.72461,-4.57032 -14.67775,-22.14846 -5.00977,-7.29492 -8.08594,-9.58008 -2.98829,-2.28516 -11.3379,-4.57032 z"
       style="font-style:normal;font-variant:normal;font-weight:normal;font-stretch:normal;font-size:180.00015259px;font-family:'Calisto MT';-inkscape-font-specification:'Calisto MT, Normal';text-align:start;writing-mode:lr-tb;text-anchor:start;stroke-width:0.93750077;fill:#ff0000"
       id="path4289" />
  </g>
  <circle
     id="circle3458-7"
     style="fill:none;stroke:#000000;stroke-width:0.97137922"
     r="11.472982"
     cy="1076.1724"
     cx="2354.6084" />
  <circle
     id="circle3458-6"
     style="fill:none;stroke:#000000;stroke-width:0.97137922"
     r="11.472982"
     cy="1076.1724"
     cx="2433.4834" />
  <g
     style="font-style:normal;font-weight:normal;font-size:37.50003052px;line-height:1.25;font-family:sans-serif;letter-spacing:0px;word-spacing:0px;fill:#ff0000;fill-opacity:1;stroke:none;stroke-width:0.93750077"
     id="text3846">
    <path
       d="m 1883.4379,1122.5937 0,10.199 10.199,0 0,3.1128 -10.199,0 0,10.199 -3.0762,0 0,-10.199 -10.199,0 0,-3.1128 10.199,0 0,-10.199 3.0762,0 z"
       style="fill:#ff0000;stroke-width:0.93750077"
       id="path3430" />
  </g>
  <g
     style="font-style:normal;font-weight:normal;font-size:37.50003052px;line-height:1.25;font-family:sans-serif;letter-spacing:0px;word-spacing:0px;fill:#ff0000;fill-opacity:1;stroke:none;stroke-width:0.93750077"
     id="text3868">
    <path
       d="m 2054.8821,1130.1905 9.8694,0 0,3.003 -9.8694,0 0,-3.003 z"
       style="fill:#ff0000;stroke-width:0.93750077"
       id="path3427" />
  </g>
  <g
     style="font-style:normal;font-weight:normal;font-size:37.50003052px;line-height:1.25;font-family:sans-serif;letter-spacing:0px;word-spacing:0px;fill:#ff0000;fill-opacity:1;stroke:none;stroke-width:0.93750077"
     id="text3872">
    <path
       d="m 2326.2188,1138.9004 0,10.8765 -3.3875,0 0,-28.3082 3.3875,0 0,3.1128 q 1.062,-1.831 2.6733,-2.7099 1.6296,-0.8973 3.8818,-0.8973 3.7354,0 6.0608,2.9664 2.3438,2.9663 2.3438,7.8003 0,4.8339 -2.3438,7.8003 -2.3254,2.9663 -6.0608,2.9663 -2.2522,0 -3.8818,-0.8789 -1.6113,-0.8973 -2.6733,-2.7283 z m 11.4624,-7.1594 q 0,-3.7171 -1.5381,-5.8228 -1.5198,-2.124 -4.1931,-2.124 -2.6734,0 -4.2115,2.124 -1.5197,2.1057 -1.5197,5.8228 0,3.717 1.5197,5.841 1.5381,2.1057 4.2115,2.1057 2.6733,0 4.1931,-2.1057 1.5381,-2.124 1.5381,-5.841 z"
       style="fill:#ff0000;stroke-width:0.93750077"
       id="path3420" />
    <path
       d="m 2344.804,1121.4687 3.3691,0 4.2114,16.0035 4.1932,-16.0035 3.9734,0 4.2114,16.0035 4.1931,-16.0035 3.3691,0 -5.3649,20.5079 -3.9734,0 -4.4129,-16.8091 -4.4311,16.8091 -3.9734,0 -5.365,-20.5079 z"
       style="fill:#ff0000;stroke-width:0.93750077"
       id="path3422" />
    <path
       d="m 2389.3353,1124.6181 q -0.5677,-0.3295 -1.2452,-0.476 -0.6591,-0.1648 -1.4648,-0.1648 -2.8564,0 -4.3945,1.8677 -1.5198,1.8493 -1.5198,5.3283 l 0,10.8033 -3.3875,0 0,-20.5079 3.3875,0 0,3.1861 q 1.062,-1.8677 2.7649,-2.7649 1.7029,-0.9156 4.1382,-0.9156 0.3479,0 0.769,0.055 0.4212,0.037 0.9339,0.1282 l 0.018,3.4606 z"
       style="fill:#ff0000;stroke-width:0.93750077"
       id="path3424" />
  </g>
  <g
     style="font-style:normal;font-weight:normal;font-size:37.50003052px;line-height:1.25;font-family:sans-serif;letter-spacing:0px;word-spacing:0px;fill:#ff0000;fill-opacity:1;stroke:none;stroke-width:0.93750077"
     id="text3876">
    <path
       d="m 2416.3718,1122.2562 0,3.1494 q -1.4282,-0.7873 -2.8747,-1.1718 -1.4282,-0.4029 -2.8931,-0.4029 -3.2776,0 -5.0903,2.0874 -1.8128,2.0691 -1.8128,5.8228 0,3.7536 1.8128,5.841 1.8127,2.0691 5.0903,2.0691 1.4649,0 2.8931,-0.3845 1.4465,-0.4028 2.8747,-1.1902 l 0,3.1128 q -1.4099,0.6592 -2.9296,0.9888 -1.5015,0.3296 -3.2044,0.3296 -4.6326,0 -7.3608,-2.9114 -2.7283,-2.9114 -2.7283,-7.8552 0,-5.0171 2.7466,-7.8919 2.7649,-2.8747 7.5622,-2.8747 1.5564,0 3.0396,0.3296 1.4831,0.3112 2.8747,0.9521 z"
       style="fill:#ff0000;stroke-width:0.93750077"
       id="path3411" />
    <path
       d="m 2431.5147,1131.6678 q -4.0833,0 -5.658,0.9339 -1.5747,0.9338 -1.5747,3.186 0,1.7944 1.1719,2.8565 1.1902,1.0437 3.2226,1.0437 2.8016,0 4.4861,-1.9776 1.7029,-1.9958 1.7029,-5.2917 l 0,-0.7508 -3.3508,0 z m 6.72,-1.3916 0,11.7005 -3.3692,0 0,-3.1128 q -1.1536,1.8677 -2.8747,2.7649 -1.7212,0.8789 -4.2115,0.8789 -3.1494,0 -5.0171,-1.7578 -1.8493,-1.7761 -1.8493,-4.7425 0,-3.4607 2.3071,-5.2185 2.3254,-1.7578 6.9214,-1.7578 l 4.7241,0 0,-0.3296 q 0,-2.3254 -1.5381,-3.5888 -1.5198,-1.2818 -4.2846,-1.2818 -1.7579,0 -3.4241,0.4212 -1.6663,0.4211 -3.2044,1.2634 l 0,-3.1128 q 1.8494,-0.7141 3.5889,-1.062 1.7395,-0.3662 3.3875,-0.3662 4.4494,0 6.6467,2.3071 2.1973,2.3071 2.1973,6.9946 z"
       style="fill:#ff0000;stroke-width:0.93750077"
       id="path3413" />
    <path
       d="m 2457.1495,1124.6183 q -0.5677,-0.3296 -1.2452,-0.4761 -0.6591,-0.1648 -1.4648,-0.1648 -2.8564,0 -4.3945,1.8677 -1.5198,1.8493 -1.5198,5.3284 l 0,10.8032 -3.3875,0 0,-20.5078 3.3875,0 0,3.186 q 1.062,-1.8677 2.7649,-2.7649 1.7029,-0.9155 4.1382,-0.9155 0.3479,0 0.769,0.055 0.4212,0.037 0.9339,0.1282 l 0.018,3.4607 z"
       style="fill:#ff0000;stroke-width:0.93750077"
       id="path3415" />
    <path
       d="m 2473.5923,1124.5817 0,-11.0962 3.3692,0 0,28.4912 -3.3692,0 0,-3.0762 q -1.062,1.8311 -2.6916,2.7283 -1.6113,0.8789 -3.8818,0.8789 -3.7171,0 -6.0608,-2.9663 -2.3255,-2.9663 -2.3255,-7.8003 0,-4.834 2.3255,-7.8003 2.3437,-2.9663 6.0608,-2.9663 2.2705,0 3.8818,0.8972 1.6296,0.8789 2.6916,2.71 z m -11.4807,7.1594 q 0,3.717 1.5198,5.841 1.5381,2.1058 4.2114,2.1058 2.6734,0 4.2115,-2.1058 1.538,-2.124 1.538,-5.841 0,-3.7171 -1.538,-5.8228 -1.5381,-2.124 -4.2115,-2.124 -2.6733,0 -4.2114,2.124 -1.5198,2.1057 -1.5198,5.8228 z"
       style="fill:#ff0000;stroke-width:0.93750077"
       id="path3417" />
  </g>
  <g
     style="font-style:normal;font-weight:normal;font-size:37.50003052px;line-height:1.25;font-family:sans-serif;letter-spacing:0px;word-spacing:0px;fill:#ff0000;fill-opacity:1;stroke:none;stroke-width:0.93750077"
     id="text3880">
    <path
       d="m 2504.3867,1124.6181 q -0.5676,-0.3295 -1.2451,-0.476 -0.6592,-0.1648 -1.4648,-0.1648 -2.8565,0 -4.3946,1.8677 -1.5197,1.8493 -1.5197,5.3283 l 0,10.8033 -3.3875,0 0,-20.5079 3.3875,0 0,3.1861 q 1.062,-1.8677 2.7649,-2.7649 1.7028,-0.9156 4.1381,-0.9156 0.3479,0 0.7691,0.055 0.4211,0.037 0.9338,0.1282 l 0.018,3.4606 z"
       style="fill:#ff0000;stroke-width:0.93750077"
       id="path3404" />
    <path
       d="m 2520.8296,1124.5815 0,-11.0962 3.3692,0 0,28.4913 -3.3692,0 0,-3.0762 q -1.062,1.831 -2.6916,2.7283 -1.6114,0.8789 -3.8819,0.8789 -3.717,0 -6.0608,-2.9663 -2.3254,-2.9664 -2.3254,-7.8003 0,-4.834 2.3254,-7.8003 2.3438,-2.9664 6.0608,-2.9664 2.2705,0 3.8819,0.8973 1.6296,0.8789 2.6916,2.7099 z m -11.4807,7.1595 q 0,3.717 1.5198,5.841 1.5381,2.1057 4.2114,2.1057 2.6733,0 4.2114,-2.1057 1.5381,-2.124 1.5381,-5.841 0,-3.7171 -1.5381,-5.8228 -1.5381,-2.124 -4.2114,-2.124 -2.6733,0 -4.2114,2.124 -1.5198,2.1057 -1.5198,5.8228 z"
       style="fill:#ff0000;stroke-width:0.93750077"
       id="path3406" />
    <path
       d="m 2539.7078,1143.8809 q -1.4282,3.6621 -2.7832,4.779 -1.355,1.117 -3.6255,1.117 l -2.6916,0 0,-2.8199 1.9775,0 q 1.3916,0 2.1606,-0.6591 0.7691,-0.6592 1.7029,-3.1128 l 0.6043,-1.5381 -8.2947,-20.1783 3.5705,0 6.4087,16.0401 6.4087,-16.0401 3.5706,0 -9.0088,22.4122 z"
       style="fill:#ff0000;stroke-width:0.93750077"
       id="path3408" />
  </g>
  <g
     style="font-style:normal;font-weight:normal;font-size:37.50003052px;line-height:1.25;font-family:sans-serif;letter-spacing:0px;word-spacing:0px;fill:#ff0000;fill-opacity:1;stroke:none;stroke-width:0.93750077"
     id="text3910">
    <path
       d="m 2712.9338,1125.5787 q -2.7099,0 -4.2846,2.124 -1.5747,2.1058 -1.5747,5.7862 0,3.6804 1.5564,5.8044 1.5747,2.1057 4.3029,2.1057 2.6917,0 4.2664,-2.124 1.5747,-2.124 1.5747,-5.7861 0,-3.6438 -1.5747,-5.7678 -1.5747,-2.1424 -4.2664,-2.1424 z m 0,-2.8564 q 4.3946,0 6.9031,2.8564 2.5086,2.8565 2.5086,7.9102 0,5.0354 -2.5086,7.9101 -2.5085,2.8565 -6.9031,2.8565 -4.4128,0 -6.9213,-2.8565 -2.4903,-2.8747 -2.4903,-7.9101 0,-5.0537 2.4903,-7.9102 2.5085,-2.8564 6.9213,-2.8564 z"
       style="fill:#ff0000;stroke-width:0.93750077"
       id="path3397" />
    <path
       d="m 2738.294,1115.2333 0,2.8015 -3.2227,0 q -1.8127,0 -2.5268,0.7324 -0.6958,0.7324 -0.6958,2.6367 l 0,1.8128 5.5481,0 0,2.6184 -5.5481,0 0,17.8894 -3.3875,0 0,-17.8894 -3.2227,0 0,-2.6184 3.2227,0 0,-1.4283 q 0,-3.424 1.593,-4.9804 1.593,-1.5747 5.0537,-1.5747 l 3.1861,0 z"
       style="fill:#ff0000;stroke-width:0.93750077"
       id="path3399" />
    <path
       d="m 2751.5508,1115.2333 0,2.8015 -3.2226,0 q -1.8128,0 -2.5269,0.7324 -0.6958,0.7324 -0.6958,2.6367 l 0,1.8128 5.5481,0 0,2.6184 -5.5481,0 0,17.8894 -3.3874,0 0,-17.8894 -3.2227,0 0,-2.6184 3.2227,0 0,-1.4283 q 0,-3.424 1.593,-4.9804 1.593,-1.5747 5.0537,-1.5747 l 3.186,0 z"
       style="fill:#ff0000;stroke-width:0.93750077"
       id="path3401" />
  </g>
  <g
     style="font-style:normal;font-weight:normal;font-size:37.50003052px;line-height:1.25;font-family:sans-serif;letter-spacing:0px;word-spacing:0px;fill:#ff0000;fill-opacity:1;stroke:none;stroke-width:0.93750077"
     id="text3914">
    <path
       d="m 2715.438,1020.7065 q -2.71,0 -4.2847,2.1241 -1.5747,2.1057 -1.5747,5.7861 0,3.6804 1.5564,5.8044 1.5747,2.1058 4.303,2.1058 2.6917,0 4.2664,-2.1241 1.5747,-2.124 1.5747,-5.7861 0,-3.6438 -1.5747,-5.7678 -1.5747,-2.1424 -4.2664,-2.1424 z m 0,-2.8564 q 4.3945,0 6.9031,2.8564 2.5085,2.8565 2.5085,7.9102 0,5.0354 -2.5085,7.9102 -2.5086,2.8564 -6.9031,2.8564 -4.4128,0 -6.9214,-2.8564 -2.4902,-2.8748 -2.4902,-7.9102 0,-5.0537 2.4902,-7.9102 2.5086,-2.8564 6.9214,-2.8564 z"
       style="fill:#ff0000;stroke-width:0.93750077"
       id="path3392" />
    <path
       d="m 2747.4632,1026.4744 0,12.3779 -3.3692,0 0,-12.2681 q 0,-2.9114 -1.1352,-4.3579 -1.1353,-1.4465 -3.4058,-1.4465 -2.7283,0 -4.303,1.7395 -1.5747,1.7395 -1.5747,4.7424 l 0,11.5906 -3.3874,0 0,-20.5078 3.3874,0 0,3.186 q 1.2085,-1.8494 2.8382,-2.7649 1.6479,-0.9155 3.7902,-0.9155 3.534,0 5.3467,2.1972 1.8128,2.179 1.8128,6.4271 z"
       style="fill:#ff0000;stroke-width:0.93750077"
       id="path3394" />
  </g>
  <path
     style="fill:none;fill-rule:evenodd;stroke:#000000;stroke-width:1.00000083;stroke-linecap:butt;stroke-linejoin:miter;stroke-miterlimit:4;stroke-dasharray:none;stroke-opacity:1"
     d="m 1058.1658,209.59636 191.377,0 0,27.61702 26.9957,0.21972 0,58.4458 -25.2379,0.21972 0,23.54655 0.2197,0.3867 -195.1123,-0.43944 0.2198,-21.95576 -25.7075,-0.21972 0,-65.47687 26.8061,-0.21972 z"
     id="path3455"
     inkscape:connector-curvature="0"
     sodipodi:nodetypes="cccccccccccccc" />
  <path
     sodipodi:nodetypes="cccccccccccccc"
     inkscape:connector-curvature="0"
     id="path4321"
     d="m 215.13946,209.59261 191.377,0 0,27.61702 26.9957,0.21972 0,58.4458 -25.2379,0.21972 0,23.54655 0.2197,0.3867 -195.1123,-0.43944 0.2198,-21.95576 -25.7075,-0.21972 0,-65.47687 26.8061,-0.21972 z"
     style="fill:none;fill-rule:evenodd;stroke:#000000;stroke-width:1.00000083;stroke-linecap:butt;stroke-linejoin:miter;stroke-miterlimit:4;stroke-dasharray:none;stroke-opacity:1" />
</svg>
