<?xml version="1.0" encoding="UTF-8" standalone="no"?>
<svg
   xmlns:dc="http://purl.org/dc/elements/1.1/"
   xmlns:cc="http://creativecommons.org/ns#"
   xmlns:rdf="http://www.w3.org/1999/02/22-rdf-syntax-ns#"
   xmlns:svg="http://www.w3.org/2000/svg"
   xmlns="http://www.w3.org/2000/svg"
   xmlns:sodipodi="http://sodipodi.sourceforge.net/DTD/sodipodi-0.dtd"
   xmlns:inkscape="http://www.inkscape.org/namespaces/inkscape"
   version="1.1"
   width="914.3000000000001mm"
   height="512.7mm"
   viewBox=" 0 0 3239.648333 1816.6550370000002"
   id="svg3422"
   inkscape:version="0.91 r13725"
   sodipodi:docname="caseplans-3.svg">
  <metadata
     id="metadata3468">
    <rdf:RDF>
      <cc:Work
         rdf:about="">
        <dc:format>image/svg+xml</dc:format>
        <dc:type
           rdf:resource="http://purl.org/dc/dcmitype/StillImage" />
      </cc:Work>
    </rdf:RDF>
  </metadata>
  <defs
     id="defs3466" />
  <sodipodi:namedview
     pagecolor="#ffffff"
     bordercolor="#666666"
     borderopacity="1"
     objecttolerance="10"
     gridtolerance="10"
     guidetolerance="10"
     inkscape:pageopacity="0"
     inkscape:pageshadow="2"
     inkscape:window-width="1732"
     inkscape:window-height="1025"
     id="namedview3464"
     showgrid="false"
     inkscape:zoom="0.37926879"
     inkscape:cx="1619.8228"
     inkscape:cy="1646.5895"
     inkscape:window-x="335"
     inkscape:window-y="84"
     inkscape:window-maximized="0"
     inkscape:current-layer="svg3422" />
  <!-- Front-->
  <g
     transform="translate(22.5000185, 22.5000185) "
     id="g3424">
    <polygon
       style="stroke:#000000; fill:none; stroke-width:0.90000074"
       points="0, 0 0, 885.8275 1417.324, 885.8275 1417.324, 0"
       id="polygon3426" />
    <circle
       cx="1169.2923"
       cy="248.0317"
       r="132.874125"
       style="stroke:#000000;stroke-width:0.90000074;fill:none"
       id="circle3428" />
    <circle
       cx="248.0317"
       cy="248.0317"
       r="132.874125"
       style="stroke:#000000;stroke-width:0.90000074;fill:none"
       id="circle3430" />
  </g>
  <!-- Back-->
  <g
     transform="translate(1439.8240185, 22.5000185) "
     id="g3432">
    <polyline
       style="stroke:#000000; fill:none; stroke-width:0.90000074"
       points="0, 0 1417.324, 0 1417.324, 885.8275 0, 885.8275"
       id="polyline3434" />
  </g>
  <!-- Left-->
  <g
     transform="translate(2846.5180885, 33.1299485) "
     id="g3436">
    <polyline
       style="stroke:#000000; fill:none; stroke-width:0.90000074"
       points="10.62993, 10.62993 349.370366, 10.62993 349.370366, 875.19757 10.62993, 875.19757"
       id="polyline3438" />
  </g>
  <!-- Right-->
  <g
     transform="translate(2846.5180885, 897.6975885) "
     id="g3440">
    <polyline
       style="stroke:#000000; fill:none; stroke-width:0.90000074"
       points="349.370366, 10.62993 349.370366, 875.19757 10.62993, 875.19757 10.62993, 349.370366"
       id="polyline3442" />
  </g>
  <!-- Top-->
  <g
     transform="translate(22.5000185, 897.6975885) "
     id="g3444">
    <polyline
       style="stroke:#000000; fill:none; stroke-width:0.90000074"
       points="0, 10.62993 0, 349.370366 1417.324, 349.370366 1417.324, 10.62993"
       id="polyline3446" />
  </g>
  <!-- Bottom-->
  <g
     transform="translate(1439.8240185, 897.6975885) "
     id="g3448">
    <polyline
       style="stroke:#000000; fill:none; stroke-width:0.90000074"
       points="0, 349.370366 1417.324, 349.370366 1417.324, 10.62993"
       id="polyline3450" />
    <rect
       x="177.1655"
       y="330.945154"
       width="35.433099999999996"
       height="17.716549999999998"
       rx="0"
       ry="0"
       style="stroke:#000000;stroke-width:0.90000074;fill:none"
       id="rect3452" />
    <rect
       x="177.1655"
       y="330.945154"
       width="35.433099999999996"
       height="17.716549999999998"
       rx="0"
       ry="0"
       style="stroke:#000000;stroke-width:0.90000074;fill:none"
       id="rect3454" />
    <circle
       cx="1062.993"
       cy="180.000148"
       r="12.401585"
       style="stroke:#000000;stroke-width:0.90000074;fill:none"
       id="circle3456" />
    <circle
       cx="1240.1585"
       cy="180.000148"
       r="10.62993"
       style="stroke:#000000;stroke-width:0.90000074;fill:none"
       id="circle3458" />
    <circle
       cx="620.07925"
       cy="180.000148"
       r="21.25986"
       style="stroke:#000000;stroke-width:0.90000074;fill:none"
       id="circle3460" />
    <circle
       cx="442.91375"
       cy="180.000148"
       r="21.25986"
       style="stroke:#000000;stroke-width:0.90000074;fill:none"
       id="circle3462" />
  </g>
  <path
     style="fill:#ff0000"
     d="m 868.7168,771.08241 c -30.69687,-6.66669 -59.53815,-27.34636 -96.38944,-69.11283 -17.56923,-19.91256 -20.24949,-22.0884 -37.99908,-30.84767 -17.79099,-8.7797 -20.62458,-9.54276 -41.44618,-11.16106 -12.29226,-0.95539 -22.89262,-1.19402 -23.55635,-0.53029 -1.66297,1.66296 17.39803,18.40389 26.48501,23.26131 9.43403,5.04293 18.77442,16.32714 21.75828,26.28638 1.27597,4.25879 2.30489,14.03944 2.2865,21.73479 -0.0431,17.99218 -5.54755,28.72549 -16.95926,33.06881 -7.10591,2.70451 -8.42057,2.63691 -14.72314,-0.75724 -4.75401,-2.56021 -8.66728,-7.28373 -12.50019,-15.08846 -4.76546,-9.70356 -5.57612,-13.88249 -5.55529,-28.63755 0.0203,-13.95308 0.89932,-18.92198 4.57308,-25.83311 2.50178,-4.70638 4.54868,-9.39823 4.54868,-10.42632 0,-2.31638 -18.90173,-16.72615 -28.34741,-21.6107 -10.83278,-5.60185 -65.27266,-3.40238 -90.55252,3.65848 -35.39409,9.88584 -65.87513,25.10099 -107.12327,53.47246 -11.96758,8.23159 -23.17161,14.96653 -24.89785,14.96653 -4.68858,0 -11.26853,-7.48159 -11.26853,-12.81265 0,-3.40997 3.72887,-7.47928 13.71922,-14.97174 30.58002,-22.93411 65.32848,-39.17732 106.19694,-49.64193 18.4722,-4.72992 25.93069,-7.75935 35.56836,-14.44687 6.70717,-4.65407 22.71293,-15.53282 35.56835,-24.17499 18.85887,-12.67805 25.18801,-18.24247 32.76781,-28.80862 10.46549,-14.58878 28.13436,-30.19058 46.14435,-40.74594 6.55488,-3.84172 31.03831,-15.90957 54.40757,-26.81744 23.36926,-10.90787 50.49245,-23.83363 60.27375,-28.72391 9.78129,-4.89028 17.78417,-8.17413 17.78417,-7.29744 0,0.87668 -4.06044,8.71912 -9.0232,17.42764 -12.3909,21.74319 -29.72242,42.63279 -44.23526,53.31654 -19.4451,14.31466 -76.55166,41.78369 -107.38875,51.65544 -26.35174,8.43587 -38.69545,14.03808 -59.36846,26.94445 -12.60088,7.86685 -13.06909,12.68823 -1.01624,10.46462 4.75091,-0.87649 29.67417,-1.4814 55.38501,-1.34425 50.8566,0.27129 64.89968,-1.72877 89.96243,-12.8127 14.82328,-6.55557 18.77511,-10.26895 18.77511,-17.64233 0,-13.84995 12.8253,-28.92258 33.28596,-39.11856 17.02897,-8.4859 29.75145,-6.30259 34.8863,5.98685 8.51394,20.3767 -20.83822,48.28151 -50.78576,48.28151 -10.38417,0 -15.23543,1.41839 -31.42104,9.18672 -12.87248,6.17819 -18.20149,9.68209 -16.2724,10.69932 1.57767,0.83193 18.55406,3.1837 37.72528,5.22617 37.82637,4.02996 44.37079,3.57067 78.4419,-5.50506 12.31732,-3.28105 20.71413,-7.48771 38.61707,-19.34651 21.56153,-14.28225 106.79315,-58.09978 139.36179,-71.64579 17.2288,-7.16584 17.1366,-7.40105 6.0555,15.45177 -23.5061,48.47689 -80.12924,79.44406 -147.94596,80.91166 -23.28467,0.50389 -44.4392,4.21544 -41.28963,7.24424 2.63222,2.53131 71.53198,10.05301 92.08691,10.05301 l 18.66953,0 8.61847,-8.86776 c 10.80435,-11.11685 25.02924,-16.24244 45.55288,-16.4138 14.3264,-0.11961 15.1291,0.13136 20.8329,6.51321 7.5003,8.39199 7.6918,16.36549 0.5955,24.79896 -7.8486,9.32744 -20.0389,14.75517 -35.65734,15.87632 -16.15359,1.15961 -20.92981,0.14695 -30.75415,-6.51995 -6.77161,-4.59533 -10.4408,-5.22557 -41.51721,-7.13115 -18.74904,-1.14967 -40.82563,-2.65087 -49.05911,-3.33598 -9.77679,-0.81354 -14.71233,-0.52974 -14.22734,0.81809 0.40844,1.13506 9.22848,7.62529 19.60007,14.42273 15.79109,10.34931 20.29803,12.35896 27.71686,12.35896 12.36632,0 26.36962,9.77949 34.27157,23.93423 10.76857,19.28974 11.3913,32.66139 1.96026,42.09243 -8.90353,8.90353 -20.31595,5.79121 -33.9003,-9.24505 -9.92948,-10.99075 -15.53408,-23.85334 -16.88497,-38.75113 -0.59354,-6.54582 -2.09607,-12.74443 -3.33891,-13.77465 -5.04083,-4.17851 -29.95175,-17.4162 -50.24632,-26.70097 -20.4792,-9.36923 -23.07498,-10.02437 -51.58285,-13.01881 -34.53273,-3.62729 -37.6228,-3.75073 -37.6228,-1.50286 0,4.49444 13.93389,11.31098 28.17704,13.78436 24.19319,4.20124 42.83135,14.53544 62.68069,34.75428 9.16977,9.34045 23.35735,24.96307 31.52795,34.71693 22.29783,26.61856 21.19872,24.87521 15.56352,24.68637 -2.65206,-0.0888 -10.56128,-1.40804 -17.57606,-2.9315 z"
     id="path3573"
     inkscape:connector-curvature="0" />
</svg>
